<svg width="139" height="40" viewBox="0 0 139 40" fill="none" xmlns="http://www.w3.org/2000/svg">
<path fill-rule="evenodd" clip-rule="evenodd" d="M63.319 25.3652C62.3523 25.5897 61.8521 25.2901 61.8521 24.6452C61.8521 23.7614 62.7593 23.4077 64.0554 23.4077C64.6255 23.4077 65.1633 23.4572 65.1633 23.4572C65.1633 23.8356 64.3471 25.1264 63.319 25.3652ZM64.3028 16.5173C61.208 16.5173 58.9861 17.6635 58.9861 17.6635V21.0331C58.9861 21.0331 61.4392 19.6127 63.4295 19.6127C65.0172 19.6127 65.2125 20.4756 65.1405 21.1914C65.1405 21.1914 64.6822 21.0693 63.2847 21.0693C59.9905 21.0693 58.3283 22.5772 58.3283 24.9947C58.3283 27.2881 60.1965 28.2464 61.771 28.2464C64.0678 28.2464 65.078 26.6914 65.3879 25.9539C65.6034 25.4422 65.6432 25.0972 65.8359 25.0972C66.0573 25.0972 65.9828 25.3447 65.9716 25.8539C65.9534 26.746 65.9956 27.4201 66.1359 27.9885H69.1818V22.4702C69.1818 19.0248 67.9714 16.5173 64.3028 16.5173Z" fill="white"/>
<path fill-rule="evenodd" clip-rule="evenodd" d="M84.3505 22.3874C84.3505 21.3795 85.2809 20.4616 86.9886 20.4616C88.8489 20.4616 90.3461 21.3641 90.6816 21.5691V17.6683C90.6816 17.6683 89.4993 16.5216 86.5931 16.5216C83.5297 16.5216 80.9785 18.327 80.9785 22.2133C80.9785 26.0991 83.2939 28.2541 86.5848 28.2541C89.1559 28.2541 90.6882 26.8312 90.6882 26.8312V23.1266C90.2033 23.3995 88.8527 24.3441 87.0072 24.3441C85.0534 24.3441 84.3505 23.4383 84.3505 22.3874ZM43.6394 16.777C43.6398 16.7795 43.8339 17.6179 43.5782 18.7141C43.4479 19.2716 43.2084 19.7458 43.4975 19.7458C43.6969 19.7458 43.6973 19.5791 43.9567 18.9816C44.3361 18.1083 45.1357 16.5187 47.0044 16.5187C48.7807 16.5187 49.6176 17.6058 49.8948 18.6237C50.1058 19.397 49.9213 19.7458 50.1786 19.7458C50.3614 19.7458 50.4247 19.3445 50.6498 18.837C51.054 17.9279 51.933 16.5187 53.7111 16.5187C56.3939 16.5187 57.4181 18.4699 57.4181 21.397V27.9924H53.4327V21.912C53.4327 20.8983 53.2701 19.9149 52.3525 19.9149C51.5024 19.9149 51.1061 21.4324 51.1061 22.412V27.9949H47.0474V21.9124C47.0474 20.6154 46.8658 19.9154 45.9606 19.9154C45.1771 19.9154 44.72 21.3116 44.72 22.4124V27.9928H40.6774V16.777H43.6394ZM70.5085 16.7925C70.5101 16.7933 71.1981 17.1929 72.5335 17.1929C73.8714 17.1929 74.5506 16.7925 74.5506 16.7925V27.9953H70.5085V16.7925ZM103.88 16.7925C103.882 16.7933 104.57 17.1929 105.906 17.1929C107.243 17.1929 107.923 16.7925 107.923 16.7925V27.9953H103.88V16.7925ZM79.9013 13.3816V27.9953H75.8587V13.3816H79.9013ZM95.4857 13.3816C95.4862 13.3829 95.6533 13.8029 95.6533 15.0521C95.6533 16.8966 95.2549 18.3979 95.0667 18.9699C94.967 19.2729 94.7891 19.7404 95.0443 19.7487C95.1916 19.7533 95.2801 19.5299 95.4605 19.1424C95.64 18.7545 96.5303 16.5212 98.8701 16.5212C102.093 16.5212 102.567 19.1795 102.567 22.0583V27.9949H98.5247V21.8145C98.5247 20.547 98.2608 19.9174 97.4173 19.9174C96.3988 19.9174 96.0388 21.5058 96.0388 22.4149V27.9949H91.9963V13.3812L95.4857 13.3816ZM112.25 16.777C112.251 16.7795 112.445 17.6179 112.189 18.7141C112.059 19.2716 111.819 19.7458 112.109 19.7458C112.308 19.7458 112.308 19.5791 112.568 18.9816C112.947 18.1083 113.747 16.5187 115.615 16.5187C117.473 16.5187 118.21 17.6108 118.506 18.6237C118.704 19.3024 118.532 19.7458 118.79 19.7458C118.972 19.7458 119.036 19.3445 119.261 18.837C119.664 17.9279 120.544 16.5187 122.322 16.5187C125.005 16.5187 126.029 18.4699 126.029 21.397V27.9924H122.044V21.912C122.044 20.8983 121.881 19.9149 120.964 19.9149C120.113 19.9149 119.717 21.4324 119.717 22.412V27.9949H115.658V21.9124C115.658 20.6154 115.477 19.9154 114.572 19.9154C113.788 19.9154 113.331 21.3116 113.331 22.4124V27.9928H109.288V16.777H112.25ZM72.5174 13.2683C71.1514 13.2683 70.0431 13.9966 70.0431 14.895C70.0431 15.7933 71.1509 16.5216 72.5174 16.5216C73.8842 16.5216 74.992 15.7933 74.992 14.895C74.992 13.9966 73.8846 13.2683 72.5174 13.2683ZM105.89 13.2683C104.523 13.2683 103.415 13.9966 103.415 14.895C103.415 15.7933 104.523 16.5216 105.89 16.5216C107.256 16.5216 108.364 15.7933 108.364 14.895C108.364 13.9966 107.256 13.2683 105.89 13.2683Z" fill="white"/>
<path fill-rule="evenodd" clip-rule="evenodd" d="M132.915 25.5785C131.989 25.5785 131.307 24.3947 131.307 22.7452C131.307 21.1431 132.007 19.9127 132.883 19.9127C134.007 19.9127 134.487 20.9514 134.487 22.7452C134.487 24.6114 134.045 25.5785 132.915 25.5785ZM134.024 16.5148C131.947 16.5148 130.994 18.0835 130.581 18.9773C130.307 19.5677 130.322 19.7414 130.122 19.7414C129.833 19.7414 130.073 19.2673 130.203 18.7098C130.459 17.6119 130.264 16.7731 130.264 16.7731H127.304V31.0826H131.345V26.546C131.823 27.3631 132.708 28.236 134.074 28.236C136.997 28.236 138.467 25.7456 138.467 22.381C138.467 18.5677 136.707 16.5148 134.025 16.5148" fill="white"/>
<path fill-rule="evenodd" clip-rule="evenodd" d="M26.3871 19.9007C26.6589 19.8682 26.9191 19.8665 27.1587 19.9007C27.2972 19.5807 27.3208 19.0294 27.1963 18.429C27.0114 17.5365 26.7607 16.9965 26.2428 17.0807C25.7248 17.1649 25.7058 17.8115 25.8911 18.7036C25.9954 19.2057 26.1807 19.6349 26.3871 19.9007Z" fill="white"/>
<path fill-rule="evenodd" clip-rule="evenodd" d="M21.9437 20.607C22.3139 20.7707 22.5419 20.8795 22.6308 20.7845C22.6883 20.7253 22.6709 20.6124 22.5824 20.467C22.3995 20.1666 22.0235 19.8616 21.6243 19.6903C20.8085 19.3366 19.8351 19.4541 19.0842 19.9974C18.8364 20.1803 18.6015 20.4336 18.635 20.5874C18.6457 20.637 18.683 20.6745 18.7698 20.687C18.9742 20.7103 19.6882 20.347 20.5111 20.2961C21.0915 20.2603 21.573 20.4432 21.9437 20.607Z" fill="white"/>
<path fill-rule="evenodd" clip-rule="evenodd" d="M21.2 21.0353C20.7172 21.112 20.4512 21.2724 20.2804 21.4212C20.1348 21.5495 20.0446 21.6916 20.0454 21.7912C20.0458 21.8387 20.0661 21.8662 20.0822 21.8799C20.1042 21.8995 20.1302 21.9103 20.1617 21.9103C20.2705 21.9103 20.515 21.8116 20.515 21.8116C21.1864 21.5695 21.6294 21.5991 22.0683 21.6491C22.3108 21.6766 22.4258 21.6916 22.4787 21.6078C22.4944 21.5837 22.5135 21.5316 22.4651 21.4524C22.3521 21.2678 21.8644 20.9558 21.2 21.0353Z" fill="white"/>
<path fill-rule="evenodd" clip-rule="evenodd" d="M24.8877 22.6071C25.2153 22.7692 25.5761 22.7054 25.6936 22.465C25.8111 22.2246 25.6406 21.898 25.313 21.7359C24.9853 21.5738 24.6246 21.6375 24.5071 21.8779C24.3896 22.1188 24.5601 22.445 24.8877 22.6071Z" fill="white"/>
<path fill-rule="evenodd" clip-rule="evenodd" d="M26.9945 20.7535C26.7285 20.7489 26.5076 21.0431 26.5014 21.411C26.4952 21.7789 26.7062 22.0801 26.9722 22.0847C27.2382 22.0893 27.4591 21.7951 27.4653 21.4272C27.4715 21.0597 27.2605 20.7581 26.9945 20.7535Z" fill="white"/>
<path fill-rule="evenodd" clip-rule="evenodd" d="M9.11493 27.3824C9.04874 27.2986 8.93994 27.3241 8.83445 27.3491C8.76082 27.3666 8.67766 27.3857 8.58624 27.3845C8.39056 27.3807 8.22467 27.2966 8.13159 27.1524C8.01038 26.9649 8.01742 26.6853 8.15104 26.3653L8.2135 26.222C8.42697 25.7395 8.78398 24.9324 8.38312 24.1632C8.08113 23.5841 7.58884 23.2237 6.99685 23.1478C6.42844 23.0753 5.84348 23.2874 5.47034 23.702C4.88166 24.3562 4.7894 25.2466 4.90317 25.5612C4.94495 25.6762 5.01031 25.7082 5.05748 25.7149C5.15759 25.7282 5.30569 25.6549 5.39835 25.4036L5.42483 25.322C5.4662 25.1891 5.54314 24.9416 5.66932 24.7432C5.82156 24.5041 6.05819 24.3395 6.33619 24.2791C6.61915 24.2178 6.90873 24.2724 7.15115 24.4324C7.5636 24.7041 7.72246 25.2132 7.54623 25.6987C7.45522 25.9499 7.30711 26.4303 7.33979 26.8249C7.40598 27.6236 7.89372 27.9445 8.33182 27.9786C8.75792 27.9949 9.05577 27.7536 9.13107 27.5778C9.17533 27.4736 9.1381 27.4103 9.11369 27.3832" fill="white"/>
<path fill-rule="evenodd" clip-rule="evenodd" d="M13.1677 12.7118C14.5577 11.0943 16.2683 9.68803 17.801 8.89845C17.8539 8.87095 17.9102 8.92887 17.8817 8.98137C17.76 9.20345 17.5255 9.67886 17.4514 10.0393C17.4398 10.0955 17.5007 10.1376 17.5478 10.1055C18.5014 9.45095 20.1598 8.74928 21.6148 8.65928C21.6772 8.65553 21.7074 8.73595 21.6578 8.7747C21.4365 8.94553 21.1945 9.1822 21.0178 9.42137C20.9876 9.4622 21.0162 9.52053 21.0666 9.52095C22.088 9.52845 23.5281 9.88845 24.4667 10.4189C24.53 10.4547 24.4849 10.5784 24.4138 10.5622C22.9936 10.2343 20.6691 9.98553 18.254 10.5789C16.0982 11.1084 14.4526 11.9263 13.2525 12.8055C13.1917 12.8501 13.1185 12.7688 13.1677 12.7118ZM20.0895 28.3833L20.0899 28.3842L20.0908 28.3858L20.0895 28.3833ZM25.8207 29.0646C25.8621 29.0471 25.8902 29 25.8857 28.9529C25.8799 28.895 25.8286 28.8529 25.7711 28.8588C25.7711 28.8588 22.8054 29.3008 20.0035 28.2679C20.3088 27.2688 21.12 27.6296 22.3466 27.7292C24.5573 27.8621 26.5389 27.5367 28.0034 27.1134C29.2722 26.7467 30.9389 26.0234 32.2333 24.9942C32.6698 25.96 32.8241 27.0234 32.8241 27.0234C32.8241 27.0234 33.1621 26.9625 33.4446 27.1375C33.7114 27.3029 33.9071 27.6467 33.7735 28.5358C33.5013 30.1967 32.8005 31.545 31.6223 32.7854C30.905 33.5629 30.0346 34.2387 29.0384 34.7304C28.5093 35.0104 27.9463 35.2525 27.351 35.4479C22.9096 36.9091 18.3632 35.3029 16.8979 31.8537C16.7808 31.5946 16.682 31.3229 16.6042 31.0392C15.9799 28.7663 16.5099 26.0392 18.1671 24.3225C18.2693 24.2134 18.3735 24.0838 18.3735 23.9217C18.3735 23.7863 18.2879 23.6434 18.2139 23.5417C17.6339 22.6946 15.6254 21.2513 16.0287 18.458C16.3183 16.4513 18.0608 15.038 19.6853 15.1218L20.097 15.1455C20.8011 15.1876 21.415 15.2784 21.9945 15.303C22.9646 15.3455 23.8367 15.2034 24.8701 14.3363C25.2184 14.0438 25.4981 13.7901 25.9709 13.7097C26.0206 13.7009 26.1443 13.6563 26.3912 13.668C26.6436 13.6818 26.8835 13.7513 27.099 13.8959C27.9272 14.4509 28.0447 15.7955 28.0878 16.7788C28.1122 17.3401 28.1796 18.6984 28.2028 19.0884C28.2553 19.9801 28.4882 20.1055 28.959 20.2617C29.2237 20.3496 29.4695 20.4151 29.8319 20.5176C30.9281 20.8276 31.578 21.1421 31.988 21.5463C32.2325 21.7988 32.3463 22.0671 32.3814 22.323C32.5105 23.273 31.6492 24.4463 29.3685 25.5125C26.8756 26.6779 23.8512 26.9729 21.7616 26.7384L21.0294 26.655C19.3581 26.4284 18.4046 28.6038 19.4078 30.0946C20.0543 31.0554 21.8154 31.6804 23.5773 31.6808C27.617 31.6812 30.7221 29.9438 31.8771 28.4433L31.9694 28.3108C32.0265 28.2246 31.9793 28.1771 31.9086 28.2258C30.965 28.8763 26.7735 31.4583 22.2899 30.6812C22.2899 30.6812 21.7451 30.5908 21.2478 30.3962C20.8528 30.2413 20.0254 29.8579 19.9249 29.0033C23.543 30.1304 25.8207 29.0646 25.8207 29.0646ZM5.94758 20.4042C4.68914 20.6505 3.58004 21.3688 2.90201 22.3613C2.49659 22.0209 1.74161 21.3617 1.60799 21.1046C0.525365 19.0338 2.78948 15.008 4.37142 12.7343C8.28078 7.11554 14.4034 2.86265 17.2375 3.63431C17.6984 3.76556 19.2245 5.54763 19.2245 5.54763C19.2245 5.54763 16.3911 7.13096 13.7638 9.33803C10.2235 12.0834 7.54979 16.0738 5.94758 20.4042ZM8.06194 29.9063C7.87164 29.9392 7.67721 29.9521 7.48112 29.9471C5.58767 29.8958 3.54281 28.1792 3.33969 26.1434C3.11506 23.893 4.25683 22.1613 6.27811 21.7505C6.51971 21.7013 6.81177 21.673 7.12659 21.6896C8.25927 21.7521 9.92809 22.628 10.3091 25.1129C10.6467 27.3138 10.1105 29.5546 8.06194 29.9063ZM33.709 25.9213C33.6928 25.8634 33.5869 25.4746 33.4417 25.0059C33.2965 24.5367 33.1463 24.2071 33.1463 24.2071C33.7288 23.3292 33.7392 22.5438 33.6614 22.0992C33.5786 21.548 33.3507 21.0784 32.8915 20.5926C32.4323 20.1071 31.4928 19.6096 30.1727 19.2363L29.4802 19.0426C29.4769 19.0138 29.4438 17.398 29.414 16.7042C29.3921 16.2026 29.3495 15.4197 29.1083 14.6488C28.8208 13.6051 28.3202 12.6918 27.6952 12.1076C29.4202 10.3068 30.4971 8.32262 30.4942 6.62096C30.4892 3.34806 26.4984 2.35765 21.58 4.40889L20.5379 4.85431C20.5334 4.84972 18.654 2.99265 18.6259 2.96765C13.0183 -1.95857 -4.51377 17.6692 1.09129 22.4363L2.31622 23.4817C1.99851 24.3109 1.87357 25.2609 1.97576 26.2821C2.10648 27.5942 2.77831 28.8517 3.86755 29.8233C4.90136 30.7458 6.26074 31.33 7.57958 31.3287C9.76095 36.3916 14.7451 39.4975 20.5888 39.6725C26.8575 39.86 32.1196 36.8975 34.3245 31.5758C34.4689 31.2025 35.0807 29.5196 35.0807 28.0338C35.0807 26.5409 34.2426 25.9213 33.709 25.9213Z" fill="white"/>
</svg>
