<svg width="100" height="42" viewBox="0 0 100 42" fill="none" xmlns="http://www.w3.org/2000/svg">
<path d="M10.797 11.468V19.4198H3.4758V11.468H0V30.4497H3.4758V22.7561H10.797V30.4497H14.2728V11.468H10.797Z" fill="white"/>
<path d="M25.3967 24.3134C25.3967 25.0741 25.0937 25.8037 24.5545 26.3416C24.0152 26.8795 23.2838 27.1817 22.5212 27.1817C21.7585 27.1817 21.0272 26.8795 20.4879 26.3416C19.9486 25.8037 19.6457 25.0741 19.6457 24.3134V16.1833H16.3487V24.3134C16.3487 25.9448 16.9984 27.5094 18.1548 28.6629C19.3113 29.8165 20.8798 30.4645 22.5152 30.4645C24.1507 30.4645 25.7192 29.8165 26.8756 28.6629C28.0321 27.5094 28.6817 25.9448 28.6817 24.3134V16.1833H25.3967V24.3134Z" fill="white"/>
<path d="M49.8251 17.0212C49.8251 15.3547 50.9304 14.8264 52.1412 14.8264C53.117 14.8264 54.4062 15.5671 55.2492 16.4657L57.4086 13.9278C56.3306 12.4737 54.1439 11.468 52.3541 11.468C48.7778 11.468 46.191 13.5575 46.191 17.0212C46.191 23.4475 54.0656 21.409 54.0656 25.0052C54.0656 26.1145 52.9859 27.0947 51.7495 27.0947C49.7996 27.0947 49.1678 26.1434 48.272 25.1377L45.8759 27.623C47.4086 29.5001 49.2989 30.4531 51.5639 30.4531C54.9614 30.4531 57.6947 28.3381 57.6947 25.0324C57.6947 17.8977 49.82 20.1146 49.82 17.0212" fill="white"/>
<path d="M98.541 27.4172C96.5928 27.4172 96.0393 26.5763 96.0393 25.2887V19.5894H99.0672V16.7016H96.0393V12.8913L92.6963 14.3879V25.9971C92.6963 28.9665 94.7501 30.463 97.5669 30.463C98.0086 30.4711 98.4501 30.4358 98.885 30.3577L99.7007 27.3628C99.3329 27.3883 98.9105 27.4138 98.541 27.4138" fill="white"/>
<path d="M37.9468 16.2791C36.3137 16.2791 35.1744 16.7514 34.0725 17.8301V11.5822H30.7704V23.1624C30.7704 27.4976 33.9124 30.467 37.4427 30.467C41.3596 30.467 44.8048 27.4449 44.8048 23.3748C44.8048 19.3556 41.6338 16.2808 37.9468 16.2808V16.2791ZM37.9264 27.1527C37.1854 27.1527 36.461 26.9336 35.8449 26.5229C35.2288 26.1123 34.7486 25.5286 34.465 24.8457C34.1814 24.1628 34.1072 23.4114 34.2518 22.6864C34.3964 21.9615 34.7532 21.2956 35.2772 20.7729C35.8011 20.2503 36.4687 19.8943 37.1955 19.7501C37.9222 19.6059 38.6755 19.6799 39.3601 19.9628C40.0447 20.2456 40.6299 20.7247 41.0415 21.3392C41.4532 21.9538 41.673 22.6764 41.673 23.4155C41.673 24.4067 41.2782 25.3573 40.5756 26.0581C39.873 26.759 38.92 27.1527 37.9264 27.1527Z" fill="white"/>
<path d="M73.8014 23.2007C73.8014 19.1238 70.3631 16.1085 66.4394 16.1085C62.9091 16.1085 59.7671 19.0779 59.7671 23.4131V35.0001H63.0692V28.7437C64.1693 29.8207 65.3103 30.2947 66.9418 30.2947C70.6287 30.2947 73.7997 27.2216 73.7997 23.2007H73.8014ZM70.6747 23.16C70.6747 23.8991 70.455 24.6217 70.0433 25.2363C69.6316 25.8508 69.0465 26.3298 68.3619 26.6127C67.6773 26.8956 66.924 26.9696 66.1972 26.8254C65.4705 26.6812 64.8029 26.3252 64.2789 25.8026C63.755 25.2799 63.3981 24.614 63.2536 23.8891C63.109 23.1641 63.1832 22.4127 63.4668 21.7298C63.7503 21.0469 64.2305 20.4632 64.8467 20.0526C65.4628 19.6419 66.1871 19.4228 66.9281 19.4228C67.9218 19.4228 68.8748 19.8165 69.5774 20.5174C70.28 21.2182 70.6747 22.1688 70.6747 23.16Z" fill="white"/>
<path d="M84.4358 16.0558V12.7807C84.8697 12.5785 85.2371 12.2575 85.4952 11.8551C85.7533 11.4527 85.8914 10.9855 85.8935 10.5078V10.4313C85.8917 9.76373 85.6251 9.124 85.1518 8.65194C84.6786 8.17988 84.0373 7.91389 83.368 7.9121H83.2914C82.6221 7.91389 81.9808 8.17988 81.5075 8.65194C81.0343 9.124 80.7676 9.76373 80.7658 10.4313V10.5078C80.768 10.9855 80.9061 11.4527 81.1642 11.8551C81.4223 12.2575 81.7897 12.5785 82.2236 12.7807V16.0558C80.9761 16.2461 79.8011 16.7618 78.8176 17.5507L69.802 10.5536C69.8662 10.3228 69.9005 10.0848 69.9042 9.84525C69.9049 9.28316 69.7384 8.7335 69.4259 8.26576C69.1134 7.79803 68.6689 7.43324 68.1485 7.21751C67.6282 7.00179 67.0554 6.94483 66.5026 7.05383C65.9498 7.16283 65.4418 7.43289 65.0429 7.82987C64.6439 8.22686 64.372 8.73292 64.2614 9.28408C64.1508 9.83524 64.2065 10.4067 64.4216 10.9263C64.6366 11.4459 65.0012 11.8901 65.4694 12.203C65.9375 12.5158 66.4882 12.6832 67.0517 12.6838C67.5466 12.682 68.0324 12.5502 68.46 12.3016L77.3241 19.1849C76.5257 20.3864 76.1092 21.8002 76.1289 23.2415C76.1487 24.6829 76.6038 26.0848 77.4348 27.2641L74.7373 29.9548C74.5207 29.8861 74.2952 29.8494 74.068 29.8461C73.6049 29.8461 73.1521 29.9831 72.7671 30.2398C72.382 30.4964 72.0819 30.8612 71.9046 31.288C71.7274 31.7148 71.681 32.1845 71.7714 32.6376C71.8617 33.0907 72.0847 33.5069 72.4122 33.8335C72.7397 34.1602 73.1569 34.3826 73.6112 34.4728C74.0654 34.5629 74.5362 34.5166 74.9641 34.3398C75.392 34.1631 75.7577 33.8637 76.015 33.4796C76.2723 33.0954 76.4096 32.6439 76.4096 32.1819C76.4065 31.9552 76.3697 31.7302 76.3006 31.5143L78.9692 28.8524C79.8403 29.5161 80.8519 29.9725 81.9268 30.1867C83.0017 30.401 84.1115 30.3674 85.1714 30.0886C86.2313 29.8098 87.2134 29.2931 88.0426 28.578C88.8718 27.8629 89.5262 26.9682 89.9559 25.9623C90.3856 24.9564 90.5793 23.8659 90.522 22.7739C90.4648 21.682 90.1582 20.6176 89.6256 19.6619C89.0931 18.7062 88.3487 17.8845 87.4492 17.2595C86.5498 16.6345 85.5191 16.2228 84.4358 16.0558ZM83.3305 26.8292C82.6003 26.8292 81.8865 26.6132 81.2793 26.2085C80.6722 25.8038 80.199 25.2286 79.9195 24.5557C79.6401 23.8827 79.5669 23.1422 79.7094 22.4278C79.8519 21.7134 80.2035 21.0572 80.7199 20.5422C81.2362 20.0271 81.8941 19.6763 82.6103 19.5342C83.3265 19.3921 84.0688 19.4651 84.7434 19.7438C85.4181 20.0226 85.9947 20.4946 86.4004 21.1002C86.8061 21.7059 87.0226 22.4179 87.0226 23.1463C87.0226 24.1231 86.6336 25.0598 85.9412 25.7505C85.2488 26.4412 84.3097 26.8292 83.3305 26.8292Z" fill="white"/>
</svg>
