<svg width="132" height="42" viewBox="0 0 132 42" fill="none" xmlns="http://www.w3.org/2000/svg">
<path d="M78.1033 13.1251C75.4006 13.1251 72.7585 15.5263 72.4546 18.9957V13.4112H68.5732V30.2501H72.5022V22.0994C72.5022 19.8162 74.1518 16.5954 78.1033 16.5954V13.1251Z" fill="white"/>
<path d="M119.316 27.5544V16.0177H121.592C124.626 16.0177 127.092 17.8784 127.092 21.693C127.092 25.5075 124.626 27.5544 121.592 27.5544H119.316ZM115.427 30.2525H122.066C126.144 30.2525 131.17 27.6474 131.17 21.693C131.17 15.8316 126.144 13.4126 122.066 13.4126H115.427V30.2525Z" fill="white"/>
<path d="M100.55 21.8793C100.55 18.809 102.162 16.297 104.817 16.297C107.378 16.297 108.801 18.809 108.801 21.8793C108.801 24.9495 107.378 27.4615 104.817 27.4615C102.162 27.4615 100.55 24.9495 100.55 21.8793ZM96.5671 22.0653C96.5671 27.0894 99.2223 30.6248 103.395 30.6248C106.43 30.6248 108.231 28.671 109.18 25.5077V30.2527H113.067V13.4128H109.18V17.8786C108.327 14.9014 106.525 13.1337 103.68 13.1337C99.412 13.1337 96.5671 16.9482 96.5671 22.0653Z" fill="white"/>
<path d="M8.02553 30.6248C3.18898 30.6248 0.343964 26.8103 0.343964 22.0653C0.343964 17.1343 3.47349 13.1337 9.44803 13.1337C15.6123 13.1337 17.6986 17.2274 17.7934 19.5533H13.3362C13.2414 18.2508 12.1034 16.297 9.35318 16.297C6.41334 16.297 4.51667 18.809 4.51667 21.8793C4.51667 24.9495 6.41334 27.4615 9.35318 27.4615C12.0085 27.4615 13.1465 25.4147 13.6207 23.3679H9.35318V21.6931H18.3079V30.2527H14.3794V24.8565C14.0949 26.8103 12.8621 30.6248 8.02553 30.6248Z" fill="white"/>
<path d="M26.2732 30.6246C22.5747 30.6246 20.2986 28.2056 20.2986 23.3677V13.4126H24.2816V23.3677C24.2816 25.8797 25.5145 27.0892 27.6008 27.0892C31.6787 27.0892 33.1961 22.1581 33.1961 18.7158V13.4126H37.1791V30.2525H33.2909V24.0189C32.5322 27.4613 30.4459 30.6246 26.2732 30.6246Z" fill="white"/>
<path d="M60.9806 13.1248C57.5823 13.1248 55.4386 16.3453 54.7389 19.3231C54.6192 15.3325 52.6189 13.1248 49.4184 13.1248C46.6533 13.1248 44.0879 15.5441 43.4216 19.3713V13.4113H39.5388V30.2516H43.4714V24.2144C43.4714 22.7177 44.1074 16.5756 48.0662 16.5756C50.6307 16.5756 50.898 18.8451 50.898 21.9472V30.2516H54.8288V24.2144C54.8288 22.7177 55.4911 16.5756 59.4498 16.5756C62.0123 16.5756 62.2769 18.8451 62.2769 21.9472V30.2516H66.213V20.2906C66.2309 15.512 64.5111 13.1248 60.9806 13.1248Z" fill="white"/>
<path d="M86.5404 13.1248C81.4495 13.1248 77.9998 17.0411 77.9998 21.8748C77.9998 27.2009 81.2806 30.6247 86.5404 30.6247C91.6313 30.6247 95.1422 26.7086 95.1422 21.8748C95.1422 16.5488 91.7978 13.1248 86.5404 13.1248ZM86.5404 27.644C83.5766 27.644 81.657 25.1823 81.657 21.8748C81.657 18.5673 83.5831 16.1056 86.5404 16.1056C89.497 16.1056 91.3464 18.5673 91.3464 21.8748C91.3464 25.1823 89.4952 27.644 86.5404 27.644Z" fill="white"/>
</svg>
