<svg width="112" height="42" viewBox="0 0 112 42" fill="none" xmlns="http://www.w3.org/2000/svg">
<g clip-path="url(#clip0_1_15)">
<path fill-rule="evenodd" clip-rule="evenodd" d="M108.434 27.983C108.501 28.7438 109.115 29.7123 110.178 29.7123H110.799C111.041 29.7123 111.238 29.5163 111.238 29.277V15.7095H111.235C111.223 15.4809 111.033 15.2978 110.799 15.2978H108.873C108.64 15.2978 108.449 15.4809 108.437 15.7095H108.434V16.8119C107.254 15.3682 105.393 14.769 103.527 14.769C99.2844 14.769 95.8456 18.1837 95.8456 22.3961C95.8456 26.6088 99.2844 30.0235 103.527 30.0235C105.393 30.0235 107.427 29.3049 108.434 27.9813V27.983ZM103.534 27.3541C100.836 27.3541 98.6488 25.1345 98.6488 22.3961C98.6488 19.6582 100.836 17.4385 103.534 17.4385C106.232 17.4385 108.419 19.6582 108.419 22.3961C108.419 25.1345 106.232 27.3541 103.534 27.3541Z" fill="white"/>
<path fill-rule="evenodd" clip-rule="evenodd" d="M93.4092 21.4289C93.4092 17.4715 90.895 14.8017 86.8855 14.8017C84.9715 14.8017 83.4025 15.9007 82.8483 16.8447C82.7286 16.1065 82.3339 15.3306 81.11 15.3306H80.4862C80.2448 15.3306 80.0478 15.5268 80.0478 15.7661V28.0169C80.0478 28.0173 80.0478 28.0182 80.0478 28.0188V29.3348H80.0502C80.0629 29.563 80.2534 29.7462 80.4864 29.7462H82.413C82.4425 29.7462 82.4714 29.7427 82.4994 29.7374C82.5121 29.7349 82.5239 29.7299 82.5364 29.7264C82.5507 29.7221 82.5656 29.7187 82.5792 29.7131C82.5964 29.706 82.6119 29.6966 82.6278 29.6878C82.6357 29.683 82.6439 29.6797 82.6514 29.6747C82.6706 29.6624 82.6883 29.6476 82.7053 29.6325C82.7081 29.6297 82.7114 29.6278 82.7142 29.6252C82.7334 29.6068 82.7509 29.5865 82.7663 29.5655C82.8146 29.4997 82.844 29.4202 82.8488 29.3348H82.8513V21.3201C82.8513 19.1947 84.5868 17.4715 86.7274 17.4715C88.868 17.4715 90.6035 19.1947 90.6035 21.3201L90.6053 28.0193L90.6057 28.0169C90.6057 28.0229 90.6066 28.0289 90.6066 28.0353V29.3348H90.6093C90.622 29.563 90.8123 29.7462 91.0452 29.7462H92.9719C93.0016 29.7462 93.0303 29.7427 93.0582 29.7374C93.0696 29.7353 93.0802 29.7307 93.0914 29.7276C93.1071 29.723 93.1233 29.7192 93.1385 29.7131C93.1542 29.7066 93.1685 29.6976 93.1835 29.6892C93.1926 29.6842 93.2021 29.6805 93.2108 29.6747C93.2286 29.6631 93.2449 29.6491 93.2609 29.6353C93.265 29.6315 93.2696 29.6287 93.2734 29.6249C93.2917 29.6074 93.3079 29.5885 93.3228 29.5687C93.3239 29.5672 93.3251 29.566 93.3262 29.5646C93.3737 29.4994 93.4027 29.4208 93.4078 29.3359C93.4078 29.3353 93.408 29.3348 93.408 29.3348H93.4106L93.4092 21.4289Z" fill="white"/>
<path fill-rule="evenodd" clip-rule="evenodd" d="M73.3448 27.9829C73.4122 28.7438 74.0256 29.7122 75.0883 29.7122H75.71C75.951 29.7122 76.1483 29.5162 76.1483 29.2769V15.7095H76.1458C76.1333 15.4809 75.9427 15.2978 75.71 15.2978H73.7834C73.5504 15.2978 73.3601 15.4809 73.347 15.7095H73.3448V16.8119C72.1643 15.3682 70.3032 14.769 68.4369 14.769C64.1948 14.769 60.7561 18.1837 60.7561 22.3961C60.7561 26.6088 64.1948 30.0236 68.4369 30.0236C70.3032 30.0236 72.3372 29.305 73.3446 27.9812L73.3448 27.9829ZM68.4444 27.3541C65.7466 27.3541 63.5594 25.1346 63.5594 22.3961C63.5594 19.6582 65.7466 17.4385 68.4444 17.4385C71.1425 17.4385 73.3294 19.6582 73.3294 22.3961C73.3294 25.1346 71.1425 27.3541 68.4444 27.3541Z" fill="white"/>
<path fill-rule="evenodd" clip-rule="evenodd" d="M49.3628 26.0398C50.6489 26.9245 52.0528 27.3543 53.4019 27.3543C54.6872 27.3543 56.0159 26.6927 56.0159 25.541C56.0159 24.0036 53.1206 23.7644 51.3015 23.1505C49.482 22.5366 47.915 21.2675 47.915 19.2124C47.915 16.0676 50.7369 14.7688 53.3707 14.7688C55.0395 14.7688 56.7613 15.3152 57.8776 16.098C58.262 16.3872 58.0279 16.7193 58.0279 16.7193L56.9623 18.2305C56.8426 18.4007 56.6331 18.5477 56.3326 18.3635C56.0319 18.1794 54.9776 17.4383 53.3707 17.4383C51.7637 17.4383 50.7957 18.1752 50.7957 19.0886C50.7957 20.1838 52.0538 20.5283 53.5274 20.9016C56.0954 21.5889 58.8967 22.4151 58.8967 25.541C58.8967 28.3118 56.2866 30.0241 53.4019 30.0241C51.2159 30.0241 49.3547 29.4054 47.7938 28.268C47.4686 27.9448 47.6957 27.6447 47.6957 27.6447L48.7561 26.1412C48.9718 25.8601 49.2438 25.9582 49.3628 26.0398Z" fill="white"/>
<path fill-rule="evenodd" clip-rule="evenodd" d="M41.956 27.9829C42.0234 28.7438 42.6368 29.7122 43.6994 29.7122H44.3212C44.5622 29.7122 44.7597 29.5162 44.7597 29.2769V15.7095H44.757C44.7444 15.4809 44.5541 15.2978 44.3212 15.2978H42.3946C42.1616 15.2978 41.9713 15.4809 41.9583 15.7095H41.956V16.8119C40.7756 15.3682 38.9145 14.769 37.0482 14.769C32.8061 14.769 29.3672 18.1837 29.3672 22.3961C29.3672 26.6088 32.8061 30.0236 37.0482 30.0236C38.9145 30.0236 40.9484 29.305 41.9557 27.9812L41.956 27.9829ZM37.0557 27.3541C34.3578 27.3541 32.1706 25.1346 32.1706 22.3961C32.1706 19.6582 34.3578 17.4385 37.0557 17.4385C39.7536 17.4385 41.9406 19.6582 41.9406 22.3961C41.9406 25.1346 39.7536 27.3541 37.0557 27.3541Z" fill="white"/>
<path fill-rule="evenodd" clip-rule="evenodd" d="M18.5986 22.9146C15.7439 22.9146 13.4296 25.2107 13.4296 28.0434C13.4296 30.876 15.7439 33.1721 18.5986 33.1721C21.4534 33.1721 23.7677 30.876 23.7677 28.0434C23.7677 25.2107 21.4534 22.9146 18.5986 22.9146ZM5.16903 22.9151C2.31426 22.9151 -3.05176e-05 25.2107 -3.05176e-05 28.0434C-3.05176e-05 30.876 2.31426 33.1721 5.16903 33.1721C8.02392 33.1721 10.3383 30.876 10.3383 28.0434C10.3383 25.2107 8.02392 22.9151 5.16903 22.9151ZM17.0528 16.5036C17.0528 19.3363 14.7387 21.6327 11.8838 21.6327C9.02897 21.6327 6.7148 19.3363 6.7148 16.5036C6.7148 13.6714 9.02897 11.375 11.8838 11.375C14.7387 11.375 17.0528 13.6714 17.0528 16.5036Z" fill="white"/>
</g>
<defs>
<clipPath id="clip0_1_15">
<rect width="112" height="42" fill="white"/>
</clipPath>
</defs>
</svg>
