<svg width="111" height="46" viewBox="0 0 111 46" fill="none" xmlns="http://www.w3.org/2000/svg">
<g clip-path="url(#clip0_1_23)">
<path d="M35.6409 20.5157C35.6409 18.54 33.6682 16.4325 30.3803 16.4325C26.6978 16.4325 22.4893 19.1985 21.8317 24.7305C21.1741 30.2625 24.5936 32.7651 28.1445 32.7651C31.6955 32.7651 33.4052 31.4479 35.2464 29.6039C33.6682 27.6282 31.5639 28.5502 31.1694 28.6819C30.7748 28.9454 30.1173 29.2088 29.0651 29.2088C27.75 29.2088 26.3033 28.5502 26.3033 26.0477C34.9834 25.1257 35.6409 22.4914 35.6409 20.5157ZM31.4324 20.7791C31.4324 21.4377 31.1694 22.4914 26.8293 23.0182C27.75 19.7254 29.4597 19.462 30.2488 19.462C31.0379 19.5937 31.4324 20.1205 31.4324 20.7791ZM16.8341 21.306C16.8341 21.306 14.9928 27.1014 14.8613 27.6282C14.8613 27.1014 13.4146 16.696 13.4146 16.696C10.2582 16.696 8.54853 18.9351 7.75943 21.306C7.75943 21.306 5.52365 27.1014 5.39213 27.6282C5.26062 27.2331 4.99758 21.4377 4.99758 21.4377C4.73455 18.54 2.10422 16.696 -4.57764e-05 16.696L2.63029 32.5016C5.9182 32.5016 7.75943 30.2625 8.68005 27.8917C8.68005 27.8917 10.6528 22.7548 10.7843 22.4914C10.7843 22.7548 12.231 32.5016 12.231 32.5016C15.5189 32.5016 17.3601 30.3942 18.2808 28.1551L22.8838 16.696C19.4644 16.696 17.7547 18.9351 16.8341 21.306ZM47.872 16.3008C45.8992 16.3008 44.321 17.3545 43.0059 19.0668L44.058 9.5834C41.2962 9.5834 39.1919 11.9543 38.6658 15.3788L36.5616 32.3699C38.1398 32.3699 39.718 31.9748 40.6386 30.7894C41.4277 31.8431 42.6113 32.6334 44.321 32.6334C48.9241 32.6334 52.0805 27.3648 52.0805 22.3597C52.212 17.7497 49.9763 16.3008 47.872 16.3008ZM47.3459 24.4671C46.8199 27.2331 45.3732 29.0771 43.795 29.0771C42.3483 29.0771 41.6907 28.4185 41.6907 28.4185C41.9538 26.0477 42.2168 24.4671 42.7428 23.15C43.2689 21.8328 44.5841 19.8571 45.8992 19.8571C47.2144 19.9888 47.872 21.7011 47.3459 24.4671ZM63.654 16.696H60.4976V16.5642C60.7606 14.4568 61.1552 13.4031 62.8649 13.2714C63.917 13.1397 64.4431 12.6128 64.5746 11.9543C64.7061 11.4274 64.9692 9.71512 64.9692 9.71512C58.5248 9.71512 56.5521 12.4811 56.026 16.696V16.8277H55.8945C54.8424 16.8277 53.6587 18.0131 53.5272 19.462L53.3957 19.9888H55.5L53.6587 34.7408L53.1327 37.3751C53.2642 37.3751 53.2642 37.3751 53.3957 37.3751C56.4206 37.2434 58.2618 34.8725 58.7879 31.4479L60.2346 19.8571H61.2867C62.2073 19.8571 63.391 18.9351 63.654 17.2228V16.696ZM80.2251 16.4325C76.5426 16.4325 73.1232 19.1985 72.071 23.4134C71.0189 27.6282 72.5971 32.7651 77.9893 32.7651C83.3815 32.7651 86.5379 27.4965 86.5379 23.15C86.4064 18.8034 83.513 16.4325 80.2251 16.4325ZM81.6718 24.3354C81.5402 26.3111 80.6196 29.2088 78.2523 29.2088C75.885 29.2088 76.2796 25.7842 76.4111 24.2037C76.6741 22.4914 77.5947 19.9888 79.699 19.9888C81.6718 19.9888 81.9348 22.228 81.6718 24.3354ZM104.687 21.306C104.687 21.306 102.846 27.1014 102.714 27.6282C102.714 27.1014 101.268 16.696 101.268 16.696C98.1113 16.696 96.4016 18.9351 95.6125 21.306C95.6125 21.306 93.3767 27.1014 93.2452 27.6282C93.2452 27.2331 92.8507 21.4377 92.8507 21.4377C92.7191 18.54 89.9573 16.8277 87.853 16.8277L90.4834 32.6334C93.7713 32.6334 95.6125 30.3942 96.5331 28.0234C96.5331 28.0234 98.5059 22.8865 98.6374 22.6231C98.6374 22.8865 100.084 32.6334 100.084 32.6334C103.372 32.6334 105.213 30.5259 106.134 28.2868L110.474 16.696C107.186 16.696 105.476 18.9351 104.687 21.306ZM66.6789 9.71512L64.0485 31.3162L63.5225 33.9505C63.654 33.9505 63.654 33.9505 63.7855 33.9505C66.6789 33.9505 68.7831 31.3162 69.0462 28.1551L70.6244 15.774C71.0189 12.086 68.6516 9.71512 66.6789 9.71512Z" fill="white"/>
</g>
<defs>
<clipPath id="clip0_1_23">
<rect width="111" height="46" fill="white"/>
</clipPath>
</defs>
</svg>
