<svg width="74" height="44" viewBox="0 0 74 44" fill="none" xmlns="http://www.w3.org/2000/svg">
<g clip-path="url(#clip0_1_21)">
<path fill-rule="evenodd" clip-rule="evenodd" d="M73.3578 23.6655C73.3578 18.496 70.831 14.4169 66.0017 14.4169C61.1519 14.4169 58.2176 18.496 58.2176 23.6252C58.2176 29.7034 61.6817 32.7728 66.6537 32.7728C69.0786 32.7728 70.9125 32.2276 72.2982 31.4603V27.4216C70.9125 28.1081 69.3231 28.5322 67.3058 28.5322C65.3292 28.5322 63.5768 27.8456 63.3526 25.4628H73.317C73.317 25.2003 73.3578 24.1502 73.3578 23.6655ZM63.2915 21.7472C63.2915 19.4653 64.6975 18.5162 65.9813 18.5162C67.2243 18.5162 68.5488 19.4653 68.5488 21.7472H63.2915Z" fill="white"/>
<path fill-rule="evenodd" clip-rule="evenodd" d="M50.3519 14.4169C48.3549 14.4169 47.0711 15.3458 46.3579 15.992L46.093 14.74H41.6101V38.2857L46.7044 37.2154L46.7247 31.5006C47.4583 32.0257 48.5383 32.7728 50.3315 32.7728C53.979 32.7728 57.3005 29.865 57.3005 23.4636C57.2801 17.6075 53.9179 14.4169 50.3519 14.4169ZM49.1292 28.3302C47.927 28.3302 47.2138 27.9062 46.7247 27.3811L46.7044 19.8893C47.2342 19.3037 47.9677 18.8999 49.1292 18.8999C50.9836 18.8999 52.2673 20.9596 52.2673 23.605C52.2673 26.3109 51.0039 28.3302 49.1292 28.3302Z" fill="white"/>
<path fill-rule="evenodd" clip-rule="evenodd" d="M34.6002 13.2254L39.7149 12.135V8.03568L34.6002 9.10593V13.2254Z" fill="white"/>
<path d="M39.7149 14.7601H34.6002V32.4295H39.7149V14.7601Z" fill="white"/>
<path fill-rule="evenodd" clip-rule="evenodd" d="M29.1186 16.2545L28.7925 14.7601H24.3911V32.4295H29.4854V20.4547C30.6876 18.8998 32.7253 19.1825 33.357 19.4047V14.7601C32.7049 14.5178 30.3208 14.0736 29.1186 16.2545Z" fill="white"/>
<path fill-rule="evenodd" clip-rule="evenodd" d="M18.9301 10.3781L13.9581 11.4282L13.9377 27.6032C13.9377 30.5919 16.1996 32.793 19.2154 32.793C20.8864 32.793 22.109 32.4901 22.7814 32.1266V28.0273C22.1294 28.2898 18.9098 29.2187 18.9098 26.2301V19.0613H22.7814V14.7601H18.9098L18.9301 10.3781Z" fill="white"/>
<path fill-rule="evenodd" clip-rule="evenodd" d="M5.1554 19.8894C5.1554 19.1018 5.80747 18.7989 6.88746 18.7989C8.43612 18.7989 10.3923 19.2634 11.941 20.0913V15.3458C10.2497 14.6794 8.57876 14.4169 6.88746 14.4169C2.7509 14.4169 -1.52588e-05 16.5574 -1.52588e-05 20.1317C-1.52588e-05 25.7051 7.7433 24.8166 7.7433 27.2196C7.7433 28.1485 6.92821 28.4514 5.78709 28.4514C4.09579 28.4514 1.93581 27.7648 0.224133 26.8359V31.642C2.11921 32.4497 4.03466 32.793 5.78709 32.793C10.0255 32.793 12.9395 30.7131 12.9395 27.0985C12.9191 21.0808 5.1554 22.151 5.1554 19.8894Z" fill="white"/>
</g>
<defs>
<clipPath id="clip0_1_21">
<rect width="74" height="44" fill="white"/>
</clipPath>
</defs>
</svg>
